<svg xmlns="http://www.w3.org/2000/svg" xmlns:xlink="http://www.w3.org/1999/xlink" width="1135.645" height="300" viewBox="0 0 1135.645 300"><defs><linearGradient id="linear-gradient" x2="0.977" y2="1" gradientUnits="objectBoundingBox"><stop offset="0" stop-color="#fa9c2b"></stop><stop offset="0.587" stop-color="#814d55"></stop><stop offset="1" stop-color="#1d0b77"></stop></linearGradient></defs><g id="Ralvie_logo" data-name="Ralvie logo" transform="translate(-407.178 -362.997)"><path id="Subtraction_105" data-name="Subtraction 105" d="M19197,16937c-.363,0-.729,0-1.092,0l-.021,0,1.893,0C19197.521,16937,19197.262,16937,19197,16937Zm-10.3-.4,0,0a128.773,128.773,0,0,1-46.959-12.855,130.072,130.072,0,0,1-62.775-166.744h80.039a30,30,0,0,1,0,60h-57.289l18.461,25.387,10.629,14.619,57.9,79.6Zm38.119-2.578v0l-56.654-77.9a70,70,0,0,0-11.162-139.115h-53.816a130.286,130.286,0,0,1,41.953-29.248,129.079,129.079,0,0,1,24.975-7.973,131.172,131.172,0,0,1,53.084-.143,129.256,129.256,0,0,1,46.484,19.561,130.392,130.392,0,0,1,47.1,57.2,129.15,129.15,0,0,1,7.574,24.4,130.113,130.113,0,0,1-58.924,136.748,129,129,0,0,1-40.615,16.469ZM19212,16667h-30a15,15,0,0,1,0-30h30a15,15,0,1,1,0,30Z" transform="translate(-18659.824 -16274.001)" fill="url(#linear-gradient)"></path><path id="Union_407" data-name="Union 407" d="M12620-3880v-157.668h27.544v25.96c11.713-21.213,34.51-30.71,54.455-30.71v27.228a24.023,24.023,0,0,0-4.75-.316c-30.075.951-49.705,20.9-49.705,51.924V-3880Zm618-84.252c0-48.189,33.826-84.251,80.419-84.251,48.824,0,77.229,38.3,77.229,78.825,0,3.51,0,9.894-.958,13.723h-130.841c3.829,37.337,30.953,52.973,57.441,52.973,18.829,0,37.018-8.616,46.272-24.572l19.784,13.4c-14.678,22.978-38.93,34.146-66.376,34.146C13271.5-3880,13238-3915.425,13238-3964.25Zm26.484-13.084h105.633c-2.555-24.891-20.107-48.508-51.379-48.508C13293.2-4025.842,13269.586-4007.97,13264.479-3977.334ZM13174.526-3880v-158.926h27.766V-3880ZM12981.6-4045.307h29.039l54.893,114.885,54.57-114.885h28.72L13065.215-3880ZM12928.784-3880v-220h27.819v220Zm-75.811,0,0-36.06c-13.4,24.253-37.979,36.06-61.912,36.06-46.272,0-81.059-35.74-81.059-83.61,0-48.828,35.105-84.887,82.017-84.887,23.294,0,47.869,11.168,61.27,36.379l26.488-40.527.007,172.645Zm-115.207-83.929c0,34.785,25.21,58.718,57.44,58.718,35.424,0,58.718-28.72,58.718-58.718,0-29.679-22.975-59.357-58.079-59.357C12763.3-4023.287,12737.767-3999.035,12737.767-3963.93Zm430.06-115.325a20.634,20.634,0,0,1,20.423-20.746,21.124,21.124,0,0,1,20.743,20.746c0,10.849-9.575,20.423-20.743,20.423A20.361,20.361,0,0,1,13167.826-4079.255Z" transform="translate(-11852.82 4502.999)" fill="#1d0b77"></path></g></svg>